<mxfile host="app.diagrams.net" modified="2022-04-28T12:34:10.285Z" agent="5.0 (Macintosh; Intel Mac OS X 10_14_6) AppleWebKit/537.36 (KHTML, like Gecko) Chrome/99.0.4844.84 Safari/537.36" etag="TKaxoLFG_O5QI46oQjC2" version="17.4.6" type="github">
  <diagram id="vI_gwiSmWM1CIXz6j8ka" name="Page-1">
    <mxGraphModel dx="946" dy="514" grid="1" gridSize="10" guides="1" tooltips="1" connect="1" arrows="1" fold="1" page="1" pageScale="1" pageWidth="827" pageHeight="1169" math="0" shadow="0">
      <root>
        <mxCell id="0" />
        <mxCell id="1" parent="0" />
        <mxCell id="LYGF2sROGiMwQWcrnYc7-1" value="&lt;b&gt;&lt;font style=&quot;font-size: 20px&quot;&gt;Spring Boot Interview Questions&lt;/font&gt;&lt;/b&gt;" style="text;html=1;strokeColor=none;fillColor=none;align=center;verticalAlign=middle;whiteSpace=wrap;rounded=0;" vertex="1" parent="1">
          <mxGeometry x="10" y="10" width="320" height="30" as="geometry" />
        </mxCell>
        <mxCell id="LYGF2sROGiMwQWcrnYc7-3" value="What is Spring Boot and what are its main features/advantages?" style="whiteSpace=wrap;html=1;fontSize=12;align=left;" vertex="1" parent="1">
          <mxGeometry x="30" y="60" width="120" height="60" as="geometry" />
        </mxCell>
        <mxCell id="LYGF2sROGiMwQWcrnYc7-4" value="What are main differences between Spring and Spring Boot?" style="whiteSpace=wrap;html=1;fontSize=12;align=left;" vertex="1" parent="1">
          <mxGeometry x="170" y="60" width="120" height="60" as="geometry" />
        </mxCell>
        <mxCell id="LYGF2sROGiMwQWcrnYc7-5" value="How can we set up a Spring Boot Application with Maven?" style="whiteSpace=wrap;html=1;fontSize=12;align=left;" vertex="1" parent="1">
          <mxGeometry x="310" y="60" width="120" height="60" as="geometry" />
        </mxCell>
        <mxCell id="LYGF2sROGiMwQWcrnYc7-6" value="What is Spring Initializr" style="whiteSpace=wrap;html=1;fontSize=12;align=left;" vertex="1" parent="1">
          <mxGeometry x="450" y="60" width="120" height="60" as="geometry" />
        </mxCell>
        <mxCell id="LYGF2sROGiMwQWcrnYc7-7" value="What are Spring Boot Starters" style="whiteSpace=wrap;html=1;fontSize=12;align=left;" vertex="1" parent="1">
          <mxGeometry x="590" y="60" width="120" height="60" as="geometry" />
        </mxCell>
        <mxCell id="LYGF2sROGiMwQWcrnYc7-8" value="How to disable specific auto-configuration" style="whiteSpace=wrap;html=1;fontSize=12;align=left;" vertex="1" parent="1">
          <mxGeometry x="30" y="150" width="120" height="60" as="geometry" />
        </mxCell>
        <mxCell id="LYGF2sROGiMwQWcrnYc7-9" value="How to register a custom auto-configuration" style="whiteSpace=wrap;html=1;fontSize=12;align=left;" vertex="1" parent="1">
          <mxGeometry x="180" y="150" width="120" height="60" as="geometry" />
        </mxCell>
        <mxCell id="LYGF2sROGiMwQWcrnYc7-10" value="Explain @ConditionalOnMissingBean" style="whiteSpace=wrap;html=1;fontSize=12;align=left;" vertex="1" parent="1">
          <mxGeometry x="320" y="150" width="170" height="60" as="geometry" />
        </mxCell>
        <mxCell id="LYGF2sROGiMwQWcrnYc7-11" value="How to deploy Spring Boot applications as JAR or WAR files" style="whiteSpace=wrap;html=1;fontSize=12;align=left;" vertex="1" parent="1">
          <mxGeometry x="510" y="150" width="120" height="60" as="geometry" />
        </mxCell>
        <mxCell id="LYGF2sROGiMwQWcrnYc7-12" value="How to use Spring Boot for command-line applications" style="whiteSpace=wrap;html=1;fontSize=12;align=left;" vertex="1" parent="1">
          <mxGeometry x="30" y="240" width="120" height="60" as="geometry" />
        </mxCell>
        <mxCell id="LYGF2sROGiMwQWcrnYc7-13" value="What are possible sources of external configuration" style="whiteSpace=wrap;html=1;fontSize=12;align=left;" vertex="1" parent="1">
          <mxGeometry x="180" y="240" width="120" height="60" as="geometry" />
        </mxCell>
        <mxCell id="LYGF2sROGiMwQWcrnYc7-14" value="What does it mean that Spring Boot supports relaxed binding&amp;nbsp;" style="whiteSpace=wrap;html=1;fontSize=12;align=left;" vertex="1" parent="1">
          <mxGeometry x="330" y="240" width="120" height="60" as="geometry" />
        </mxCell>
        <mxCell id="LYGF2sROGiMwQWcrnYc7-15" value="Testing in Spring Boot and Application Context" style="whiteSpace=wrap;html=1;fontSize=12;align=left;" vertex="1" parent="1">
          <mxGeometry x="480" y="240" width="120" height="60" as="geometry" />
        </mxCell>
        <mxCell id="LYGF2sROGiMwQWcrnYc7-16" value="What is Spring Boot Actuator used for" style="whiteSpace=wrap;html=1;fontSize=12;align=left;" vertex="1" parent="1">
          <mxGeometry x="630" y="240" width="120" height="60" as="geometry" />
        </mxCell>
        <mxCell id="LYGF2sROGiMwQWcrnYc7-17" value="What is better to configure a Spring Boot application: properties or yaml?" style="whiteSpace=wrap;html=1;fontSize=12;align=left;" vertex="1" parent="1">
          <mxGeometry x="30" y="330" width="120" height="60" as="geometry" />
        </mxCell>
        <mxCell id="LYGF2sROGiMwQWcrnYc7-18" value="What are the basic annotation that Spring Boot offers" style="whiteSpace=wrap;html=1;fontSize=12;align=left;" vertex="1" parent="1">
          <mxGeometry x="180" y="330" width="120" height="60" as="geometry" />
        </mxCell>
        <mxCell id="LYGF2sROGiMwQWcrnYc7-19" value="&lt;b&gt;How to change default port in Spring Boot&lt;/b&gt;" style="whiteSpace=wrap;html=1;fontSize=12;align=left;" vertex="1" parent="1">
          <mxGeometry x="320" y="330" width="120" height="60" as="geometry" />
        </mxCell>
        <mxCell id="LYGF2sROGiMwQWcrnYc7-20" value="&lt;b&gt;Which embedded servers are default in Spring Boot and how to change them&lt;/b&gt;" style="whiteSpace=wrap;html=1;fontSize=12;align=left;" vertex="1" parent="1">
          <mxGeometry x="470" y="330" width="120" height="60" as="geometry" />
        </mxCell>
        <mxCell id="LYGF2sROGiMwQWcrnYc7-21" value="Why do we need different profiles in Spring Boot" style="whiteSpace=wrap;html=1;fontSize=12;align=left;" vertex="1" parent="1">
          <mxGeometry x="620" y="330" width="120" height="60" as="geometry" />
        </mxCell>
        <mxCell id="LYGF2sROGiMwQWcrnYc7-22" value="&lt;b&gt;When to use Hibernate and when SQL&lt;/b&gt;" style="whiteSpace=wrap;html=1;fontSize=12;align=left;" vertex="1" parent="1">
          <mxGeometry x="30" y="460" width="120" height="60" as="geometry" />
        </mxCell>
      </root>
    </mxGraphModel>
  </diagram>
</mxfile>
